<?xml version="1.0" encoding="UTF-8"?>
<svg width="56px" height="42px" viewBox="0 0 56 42" version="1.1" xmlns="http://www.w3.org/2000/svg" xmlns:xlink="http://www.w3.org/1999/xlink">
    <!-- Generator: Sketch 51.2 (57519) - http://www.bohemiancoding.com/sketch -->
    <title>landingIcons_learn</title>
    <desc>Created with Sketch.</desc>
    <defs>
        <polygon id="path-1" points="0.0001 0.8765 55.605 0.8765 55.605 41.9995 0.0001 41.9995"></polygon>
        <polygon id="path-3" points="0 42.1236 55.605 42.1236 55.605 0.9996 0 0.9996"></polygon>
    </defs>
    <g id="Page-1" stroke="none" stroke-width="1" fill="none" fill-rule="evenodd">
        <g id="fcc-web-首页" transform="translate(-550.000000, -570.000000)">
            <g id="landingIcons_learn" transform="translate(550.000000, 569.000000)">
                <g id="Group-3" transform="translate(0.000000, 0.123600)">
                    <mask id="mask-2" fill="white">
                        <use xlink:href="#path-1"></use>
                    </mask>
                    <g id="Clip-2"></g>
                    <path d="M2.4241,3.3005 L2.4241,39.5755 L53.1771,39.5755 L53.1811,3.3005 L2.4241,3.3005 Z M53.1811,39.5755 L53.1811,40.7875 L53.1811,39.5755 Z M53.1811,41.9995 L2.4241,41.9995 C1.0881,41.9995 0.0001,40.9115 0.0001,39.5755 L0.0001,3.3005 C0.0001,1.9645 1.0881,0.8765 2.4241,0.8765 L53.1811,0.8765 C54.5171,0.8765 55.6051,1.9645 55.6051,3.3005 L55.6051,39.5755 C55.6051,40.9115 54.5171,41.9995 53.1811,41.9995 Z" id="Fill-1" fill="#029950" mask="url(#mask-2)"></path>
                </g>
                <mask id="mask-4" fill="white">
                    <use xlink:href="#path-3"></use>
                </mask>
                <g id="Clip-5"></g>
                <polygon id="Fill-4" fill="#029950" mask="url(#mask-4)" points="0.555 16.7566 54.393 16.7566 54.393 14.3326 0.555 14.3326"></polygon>
                <polygon id="Fill-6" fill="#F4F4F4" mask="url(#mask-4)" points="53.181 5.8479 3.636 5.8479 2.424 3.4239 53.181 3.4239"></polygon>
                <polygon id="Fill-7" fill="#F4F4F4" mask="url(#mask-4)" points="50.73 14.3326 53.154 14.3326 53.154 3.6126 50.73 3.6126"></polygon>
                <path d="M31.5218,23.1956 L25.2498,34.0596 C24.9728,34.5386 24.3618,34.7016 23.8828,34.4256 L23.5158,34.2136 C23.0378,33.9376 22.8748,33.3256 23.1498,32.8476 L29.4218,21.9836 C29.6988,21.5056 30.3098,21.3416 30.7888,21.6176 L31.1558,21.8306 C31.6338,22.1056 31.7978,22.7176 31.5218,23.1956" id="Fill-8" fill="#029950" mask="url(#mask-4)"></path>
                <path d="M10.5638,26.6399 L17.7198,19.4839 C18.1108,19.0939 18.7438,19.0939 19.1338,19.4839 L19.4338,19.7849 C19.8248,20.1739 19.8248,20.8079 19.4338,21.1989 L12.2788,28.3539 C11.8878,28.7439 11.2538,28.7439 10.8638,28.3539 L10.5638,28.0539 C10.1728,27.6639 10.1728,27.0309 10.5638,26.6399" id="Fill-9" fill="#029950" mask="url(#mask-4)"></path>
                <path d="M10.5638,28.0794 L17.7198,35.2354 C18.1108,35.6264 18.7438,35.6264 19.1338,35.2354 L19.4338,34.9354 C19.8248,34.5454 19.8248,33.9124 19.4338,33.5214 L12.2788,26.3654 C11.8878,25.9754 11.2538,25.9754 10.8638,26.3654 L10.5638,26.6654 C10.1728,27.0564 10.1728,27.6884 10.5638,28.0794" id="Fill-10" fill="#029950" mask="url(#mask-4)"></path>
                <path d="M45.3197,26.4378 L38.1637,19.2828 C37.7727,18.8918 37.1397,18.8918 36.7497,19.2828 L36.4497,19.5828 C36.0587,19.9728 36.0587,20.6058 36.4497,20.9968 L43.6057,28.1528 C43.9967,28.5428 44.6297,28.5428 45.0197,28.1528 L45.3197,27.8528 C45.7107,27.4618 45.7107,26.8288 45.3197,26.4378" id="Fill-11" fill="#029950" mask="url(#mask-4)"></path>
                <path d="M45.3197,27.8772 L38.1637,35.0332 C37.7727,35.4242 37.1397,35.4242 36.7497,35.0332 L36.4497,34.7332 C36.0587,34.3432 36.0587,33.7102 36.4497,33.3192 L43.6057,26.1632 C43.9967,25.7732 44.6297,25.7732 45.0197,26.1632 L45.3197,26.4632 C45.7107,26.8542 45.7107,27.4862 45.3197,27.8772" id="Fill-12" fill="#029950" mask="url(#mask-4)"></path>
                <path d="M9.1468,7.9807 C8.5378,7.9807 8.0418,8.4767 8.0418,9.0857 C8.0418,9.6957 8.5378,10.1917 9.1468,10.1917 C9.7558,10.1917 10.2518,9.6957 10.2518,9.0857 C10.2518,8.4767 9.7558,7.9807 9.1468,7.9807 M9.1468,11.4037 C7.8688,11.4037 6.8298,10.3647 6.8298,9.0857 C6.8298,7.8077 7.8688,6.7687 9.1468,6.7687 C10.4248,6.7687 11.4638,7.8077 11.4638,9.0857 C11.4638,10.3647 10.4248,11.4037 9.1468,11.4037" id="Fill-13" fill="#029950" mask="url(#mask-4)"></path>
                <path d="M18.3109,7.9807 C17.7009,7.9807 17.2059,8.4767 17.2059,9.0857 C17.2059,9.6957 17.7009,10.1917 18.3109,10.1917 C18.9199,10.1917 19.4159,9.6957 19.4159,9.0857 C19.4159,8.4767 18.9199,7.9807 18.3109,7.9807 M18.3109,11.4037 C17.0329,11.4037 15.9939,10.3647 15.9939,9.0857 C15.9939,7.8077 17.0329,6.7687 18.3109,6.7687 C19.5889,6.7687 20.6279,7.8077 20.6279,9.0857 C20.6279,10.3647 19.5889,11.4037 18.3109,11.4037" id="Fill-14" fill="#029950" mask="url(#mask-4)"></path>
                <path d="M27.474,7.9807 C26.865,7.9807 26.369,8.4767 26.369,9.0857 C26.369,9.6957 26.865,10.1917 27.474,10.1917 C28.083,10.1917 28.579,9.6957 28.579,9.0857 C28.579,8.4767 28.083,7.9807 27.474,7.9807 M27.474,11.4037 C26.196,11.4037 25.157,10.3647 25.157,9.0857 C25.157,7.8077 26.196,6.7687 27.474,6.7687 C28.752,6.7687 29.791,7.8077 29.791,9.0857 C29.791,10.3647 28.752,11.4037 27.474,11.4037" id="Fill-15" fill="#029950" mask="url(#mask-4)"></path>
            </g>
        </g>
    </g>
</svg>